# xmcd
#
# Track frame offsets: 
#        150
#        12349
#        26412
#        36792
#        46812
#        59127
#        71536
#        82566
#        96316
#        107621
#        116185
#        122788
#        131155
#        143198
#        156018
#        166855
#        178258
#        190353
#        201940
#        210018
#        222073
#        234468
#        247278
#        258770
#        270342
#        279209
#        288716
#        300498
#        312395
#
# Disc length: 4296 seconds
#
# Revision: 0
# Processed by: cddbd v1.5.1PL0 Copyright (c) Steve Scherf et al.
# Submitted via: ExactAudioCopy v0.95a4
#
DISCID=a110c61d
DTITLE=Tex Ritter - High Noon - Disc 4
DYEAR=1900
DGENRE=Country
TTITLE0=Coffee Pot
TTITLE1=The Green Grass Grew All Around
TTITLE2=Talk Gobbler Talk
TTITLE3=A Whale Of A Tale
TTITLE4=Animal Fair
TTITLE5=Cactus Jackson Had A Ranch
TTITLE6=I Was Born A Hundred Years Ago
TTITLE7=Thank You
TTITLE8=Egg-A-Bread
TTITLE9=Big Rock Candy Mountain
TTITLE10=Yankee Doodle
TTITLE11=She'll Be Comin' Round The Mountain
TTITLE12=I'll Be A Sunbeam
TTITLE13=Chicken, My Chicken
TTITLE14=The Picnic Song
TTITLE15=The Cricket Song
TTITLE16=If You Whistle
TTITLE17=Blue Tail, The Red Fox
TTITLE18=The Noise Song
TTITLE19=Mr. Buzzard
TTITLE20=Carbon, The Copy Cat
TTITLE21=One Misty Moisty Morning
TTITLE22=Muskrat
TTITLE23=Little Wendy Why Why
TTITLE24=Has Anybody Seen My Kitty
TTITLE25=Two Little Magic Words (Please And Thank You)
TTITLE26=Pick Up After You
TTITLE27=Happy Hands
TTITLE28=It Doesn't Hurt A Bit To Be Polite
EXTD=
EXTT0=
EXTT1=
EXTT2=
EXTT3=
EXTT4=
EXTT5=
EXTT6=
EXTT7=
EXTT8=
EXTT9=
EXTT10=
EXTT11=
EXTT12=
EXTT13=
EXTT14=
EXTT15=
EXTT16=
EXTT17=
EXTT18=
EXTT19=
EXTT20=
EXTT21=
EXTT22=
EXTT23=
EXTT24=
EXTT25=
EXTT26=
EXTT27=
EXTT28=
PLAYORDER=
